# xmcd CD database file generated by OrangeCD 5.2
#
# Track frame offsets:
#	150
#	8655
#	37018
#	49754
#	83782
#	97287
#	116595
#	126898
#	135304
#	152692
#	183757
#	200475
#	207926
#	228339
#	249149
#	263304
#	296009
#	311639
#	333443
#	349377
#
# Disc length: 4794 seconds
#
# Revision: 0
# Processed by: cddbd v1.5.1PL2 Copyright (c) Steve Scherf et al.
# Submitted via: OrangeCD 5.2
#
DISCID=1612b814
DTITLE=Cuby and the Blizzards - Collection
DYEAR=1900
DGENRE=
TTITLE0=Things I Remember
TTITLE1=Hobo Blues
TTITLE2=Just For Fun
TTITLE3=Gin House Blues
TTITLE4=Desolation Blues
TTITLE5=Five Long Years
TTITLE6=Let's Make It
TTITLE7=Another Day, Another Road
TTITLE8=The Big Bell
TTITLE9=Somebody Will Know Someday
TTITLE10=So Many Roads
TTITLE11=Baby, Please Don't Go (Back To New Orleans)
TTITLE12=No Shoes
TTITLE13=Another Land
TTITLE14=Distant Smile
TTITLE15=Go Down Sunshine
TTITLE16=Window Of My Eyes
TTITLE17=Night Train
TTITLE18=L.S.D. (Got A Million Dollars)
TTITLE19=Your Body, Not Your Soul
EXTD=
EXTT0=
EXTT1=
EXTT2=
EXTT3=
EXTT4=
EXTT5=
EXTT6=
EXTT7=
EXTT8=
EXTT9=
EXTT10=
EXTT11=
EXTT12=
EXTT13=
EXTT14=
EXTT15=
EXTT16=
EXTT17=
EXTT18=
EXTT19=
PLAYORDER=
